<?xml version="1.0" encoding="UTF-8"?>
<svg version="1.1" xmlns="http://www.w3.org/2000/svg" width="516" height="477">
<path d="M0 0 C170.28 0 340.56 0 516 0 C516 157.41 516 314.82 516 477 C345.72 477 175.44 477 0 477 C0 319.59 0 162.18 0 0 Z " fill="#00E094" transform="translate(0,0)"/>
<path d="M0 0 C1.28563843 -0.00983414 2.57127686 -0.01966827 3.89587402 -0.02980042 C5.31852987 -0.02042857 6.74118308 -0.01064926 8.16383362 -0.00050354 C9.66368619 -0.00428702 11.16353527 -0.0097873 12.66337585 -0.01687622 C16.73580728 -0.03084576 20.80781691 -0.01965024 24.88022494 -0.00316501 C29.14200599 0.01068117 33.40376244 0.00422581 37.66555786 0.0007019 C44.82374369 -0.00200086 51.9817619 0.01148 59.13990784 0.03465271 C67.41400625 0.06125276 75.68782421 0.06301304 83.96195072 0.05126435 C91.92189586 0.04048143 99.88173962 0.04667831 107.84167671 0.06081963 C111.22873902 0.06657601 114.61572706 0.06649946 118.00279045 0.06175423 C121.99277201 0.05697859 125.98244691 0.06711023 129.97237015 0.08870888 C131.43607741 0.09426933 132.89981418 0.09474883 134.36352348 0.08975601 C136.3627985 0.08379209 138.36210328 0.09815696 140.36132812 0.11352539 C141.4797985 0.11595529 142.59826887 0.11838518 143.75063229 0.12088871 C147.16670479 0.55488881 149.05195313 1.36651622 151.74415588 3.50120544 C152.55665588 7.18870544 152.55665588 7.18870544 152.74415588 10.50120544 C153.40012756 10.49073181 154.05609924 10.48025818 154.73194885 10.46946716 C157.69431246 10.42798042 160.65661504 10.40190282 163.61915588 10.37620544 C164.65169495 10.35944763 165.68423401 10.34268982 166.74806213 10.32542419 C167.73419495 10.31897888 168.72032776 10.31253357 169.73634338 10.30589294 C171.10315247 10.2901825 171.10315247 10.2901825 172.49757385 10.27415466 C174.74415588 10.50120544 174.74415588 10.50120544 176.74415588 12.50120544 C176.99415588 15.50120544 176.99415588 15.50120544 176.74415588 18.50120544 C173.95203077 21.29333056 171.291113 20.8525862 167.54884338 20.91526794 C166.48767807 20.94431717 166.48767807 20.94431717 165.40507507 20.97395325 C163.14322504 21.03378196 160.88132419 21.08014645 158.61915588 21.12620544 C157.08658148 21.1643823 155.5540286 21.20343386 154.02149963 21.24339294 C150.26255964 21.33948583 146.5035192 21.42350393 142.74415588 21.50120544 C142.05633228 23.85488257 142.05633228 23.85488257 141.74415588 26.50120544 C142.73415588 27.98620544 142.73415588 27.98620544 143.74415588 29.50120544 C145.90482461 29.96322994 145.90482461 29.96322994 148.43751526 29.90184021 C149.41192566 29.91517899 150.38633606 29.92851776 151.39027405 29.94226074 C152.44549255 29.94237656 153.50071106 29.94249237 154.58790588 29.94261169 C155.66793884 29.95581955 156.7479718 29.9690274 157.86073303 29.9826355 C161.32190006 30.02365755 164.78280012 30.0452404 168.24415588 30.06370544 C171.70543065 30.08744566 175.16645206 30.11549689 178.62757874 30.15548706 C180.78430863 30.17995148 182.94117351 30.19472243 185.09803772 30.19909668 C186.07244812 30.20928329 187.04685852 30.21946991 188.05079651 30.22996521 C189.34080566 30.23637779 189.34080566 30.23637779 190.65687561 30.24291992 C192.74415588 30.50120544 192.74415588 30.50120544 194.74415588 32.50120544 C194.93165588 35.56370544 194.93165588 35.56370544 194.74415588 38.50120544 C192.66817548 40.57718585 188.23575368 39.73516528 185.36915588 39.78245544 C184.10966125 39.81006958 184.10966125 39.81006958 182.82472229 39.83824158 C179.21662068 39.91719604 175.60832433 39.98475242 172.00001526 40.05345154 C169.37296477 40.10506446 166.74608089 40.16236071 164.11915588 40.21995544 C162.88479797 40.2403186 162.88479797 40.2403186 161.62550354 40.26109314 C157.87782976 39.98884205 157.87782976 39.98884205 154.74415588 41.50120544 C154.49410203 44.45937651 154.49410203 44.45937651 154.74415588 47.50120544 C157.45673005 50.21377961 158.98333706 49.78098221 162.77540588 49.84495544 C163.9781012 49.87460388 165.18079651 49.90425232 166.41993713 49.93479919 C167.68192932 49.95671326 168.94392151 49.97862732 170.24415588 50.00120544 C172.73390862 50.04443915 175.22353409 50.09608829 177.71290588 50.15745544 C179.37482971 50.18549255 179.37482971 50.18549255 181.07032776 50.21409607 C183.74415588 50.50120544 183.74415588 50.50120544 185.74415588 52.50120544 C185.93165588 55.56370544 185.93165588 55.56370544 185.74415588 58.50120544 C184.74415588 59.50120544 184.74415588 59.50120544 182.87756348 59.62145996 C182.06259903 59.61923935 181.24763458 59.61701874 180.40797424 59.61473083 C179.48709518 59.6146553 178.56621613 59.61457977 177.61743164 59.61450195 C176.61639908 59.60934067 175.61536652 59.60417938 174.58399963 59.59886169 C173.56439651 59.59744675 172.5447934 59.5960318 171.49429321 59.59457397 C168.22338481 59.58895641 164.95254375 59.57640094 161.68165588 59.56370544 C159.47006833 59.55869271 157.2584797 59.55412941 155.04689026 59.55003357 C149.61262232 59.53898128 144.17839391 59.52222607 138.74415588 59.50120544 C138.72353088 60.80058044 138.70290588 62.09995544 138.68165588 63.43870544 C138.66425354 64.5350531 138.66425354 64.5350531 138.64649963 65.65354919 C138.53854404 67.51852686 138.53854404 67.51852686 139.74415588 68.50120544 C141.59953194 68.61415577 143.45915102 68.65802512 145.31788635 68.67478943 C146.50937286 68.68827927 147.70085937 68.7017691 148.92845154 68.71566772 C150.22630585 68.72610611 151.52416016 68.73654449 152.86134338 68.74729919 C154.19795047 68.76279286 155.53454944 68.77900179 156.87113953 68.79589844 C162.55999788 68.86677251 168.24893513 68.92677954 173.93800354 68.97801208 C177.41464737 69.00980325 180.89107414 69.05108174 184.36754227 69.09820747 C186.33894261 69.12202852 188.31046459 69.13497513 190.28196716 69.14779663 C191.479758 69.16443863 192.67754883 69.18108063 193.91163635 69.19822693 C194.96785187 69.20853439 196.02406738 69.21884186 197.11228943 69.22946167 C199.74415588 69.50120544 199.74415588 69.50120544 202.74415588 71.50120544 C203.05665588 74.50120544 203.05665588 74.50120544 202.74415588 77.50120544 C200.20495276 80.04040856 199.28108835 79.76457074 195.75953674 79.80418396 C194.7218364 79.82082596 193.68413605 79.83746796 192.61499023 79.85461426 C190.92902489 79.86723549 190.92902489 79.86723549 189.20899963 79.88011169 C188.06000687 79.89710617 186.9110141 79.91410065 185.72720337 79.93161011 C182.04541048 79.98489241 178.3636298 80.02510932 174.68165588 80.06370544 C170.99616937 80.10755461 167.310773 80.15419621 163.62539673 80.20651245 C161.32845792 80.23860006 159.03143922 80.26544866 156.734375 80.28674316 C155.18255272 80.30697792 155.18255272 80.30697792 153.59938049 80.32762146 C152.6838591 80.33713333 151.76833771 80.3466452 150.82507324 80.35644531 C148.75485303 80.27173152 148.75485303 80.27173152 147.74415588 81.50120544 C147.41072037 83.95912573 147.41072037 83.95912573 147.74415588 86.50120544 C150.77941074 88.52470868 151.9384179 88.82244562 155.43165588 89.12620544 C156.23989807 89.20097107 157.04814026 89.27573669 157.88087463 89.35276794 C158.80319885 89.42624451 158.80319885 89.42624451 159.74415588 89.50120544 C161.1160188 97.9514199 161.31844835 106.45902561 161.64454651 115.00218201 C161.72957359 117.13536138 161.83619569 119.26766173 161.94728088 121.39964294 C161.98337463 122.44378357 162.01946838 123.48792419 162.05665588 124.56370544 C162.1127301 125.88048279 162.1127301 125.88048279 162.16993713 127.22386169 C161.74415588 129.50120544 161.74415588 129.50120544 160.39649963 131.79417419 C156.16387926 134.51826124 151.90605603 133.92125791 146.99415588 133.75120544 C146.0106012 133.73315857 145.02704651 133.71511169 144.01368713 133.69651794 C141.58951805 133.6494467 139.16733529 133.58371286 136.74415588 133.50120544 C136.63023499 132.91677673 136.51631409 132.33234802 136.39894104 131.73020935 C134.23399647 121.2415376 129.8349846 112.57907379 120.74415588 106.50120544 C114.31986206 102.679504 107.01626288 102.70027251 99.74415588 103.50120544 C92.61112975 105.44973941 88.14967083 110.36648646 84.52149963 116.60276794 C81.58391233 122.56217444 81.44687272 126.47403709 80.74415588 133.50120544 C51.37415588 133.50120544 22.00415588 133.50120544 -8.25584412 133.50120544 C-9.24584412 129.87120544 -10.23584412 126.24120544 -11.25584412 122.50120544 C-16.87495238 112.9731523 -22.69182994 107.0225435 -33.25584412 103.50120544 C-41.40386969 102.81671864 -48.01449721 103.54014128 -54.77928162 108.26292419 C-60.57388867 113.50000597 -63.43660093 121.08477714 -64.13084412 128.75120544 C-64.19789757 130.33366694 -64.24960841 131.91733624 -64.25584412 133.50120544 C-67.44334412 133.87620544 -67.44334412 133.87620544 -71.25584412 133.50120544 C-76.10027962 128.97520853 -77.06354122 125.46754805 -77.40037537 118.98948669 C-77.45988876 118.18061508 -77.51940216 117.37174347 -77.58071899 116.5383606 C-77.76446877 113.96442298 -77.91641746 111.38969562 -78.06834412 108.81370544 C-78.18809831 107.10327845 -78.30982572 105.39298841 -78.43357849 103.68284607 C-80.45332699 74.81188163 -80.45332699 74.81188163 -68.73631287 61.23509216 C-65.75370518 57.74193917 -62.85781838 54.17619226 -59.94334412 50.62620544 C-56.45782056 46.40031896 -56.45782056 46.40031896 -54.73387146 44.31858826 C-53.50122835 42.80292996 -52.31907494 41.24638662 -51.15037537 39.68089294 C-47.89786837 35.93883335 -45.37692229 34.59980604 -40.38352966 34.16062927 C-38.8864567 34.16110018 -37.38932665 34.17780843 -35.89256287 34.20823669 C-35.10057999 34.21248154 -34.30859711 34.21672638 -33.49261475 34.22109985 C-30.97583785 34.23782381 -28.45987687 34.27546319 -25.94334412 34.31370544 C-24.23176718 34.32876046 -22.52017763 34.34244744 -20.80857849 34.35472107 C-16.62402178 34.38770659 -12.44007105 34.43944447 -8.25584412 34.50120544 C-8.39586853 33.59064392 -8.53589294 32.6800824 -8.68016052 31.7419281 C-9.67193673 25.09413376 -10.56347397 18.59974627 -10.63084412 11.87620544 C-10.65920349 10.56393982 -10.68756287 9.25167419 -10.71678162 7.89964294 C-9.82504934 1.32500665 -6.1836125 0.00115744 0 0 Z " fill="#FCFEFD" transform="translate(202.25584411621094,172.49879455566406)"/>
<path d="M0 0 C2.64453125 0.53515625 2.64453125 0.53515625 5.33203125 3.47265625 C6.14616716 5.13969644 6.90759529 6.83258006 7.64453125 8.53515625 C8.29444205 9.88264941 8.9498854 11.2274814 9.609375 12.5703125 C12.36537543 18.2415656 15.07740456 23.89655851 17.26171875 29.81640625 C18.27195693 32.53320497 19.3224368 34.97717554 20.64453125 37.53515625 C20.96622075 35.38412579 21.2878762 33.23309023 21.609375 31.08203125 C21.88382498 29.25236471 22.15987856 27.42293801 22.4375 25.59375 C23.05030466 21.55038466 23.65847234 17.50891562 24.18359375 13.453125 C24.33570313 12.32519531 24.4878125 11.19726562 24.64453125 10.03515625 C24.83015625 8.565625 24.83015625 8.565625 25.01953125 7.06640625 C25.7379141 4.1569557 26.48706045 2.6202287 28.64453125 0.53515625 C30.984375 0.00390625 30.984375 0.00390625 33.58203125 0.03515625 C34.43667969 0.02484375 35.29132813 0.01453125 36.171875 0.00390625 C39.48140082 0.71495761 40.5202664 1.91930364 42.64453125 4.53515625 C43.41821289 7.45751953 43.41821289 7.45751953 43.8046875 10.85546875 C43.95711914 12.10529541 44.10955078 13.35512207 44.26660156 14.64282227 C44.4135532 15.98191805 44.56036049 17.32102967 44.70703125 18.66015625 C44.9495638 20.70336762 45.19823219 22.74576771 45.44754028 24.78816223 C45.61240131 26.14030085 45.77539315 27.49266871 45.93649292 28.84526062 C46.67704471 35.0090025 47.66684674 41.11168972 48.78149414 47.21728516 C49.40367134 50.70375108 49.78055255 53.99180128 49.64453125 57.53515625 C46.67453125 57.53515625 43.70453125 57.53515625 40.64453125 57.53515625 C37.68966425 43.96963049 35.68623021 30.26242329 33.64453125 16.53515625 C33.53383301 17.59951904 33.42313477 18.66388184 33.30908203 19.76049805 C32.89517138 23.72157935 32.47171245 27.68159219 32.04541016 31.64135742 C31.86247704 33.35299618 31.68210996 35.06491125 31.50439453 36.77709961 C31.24801298 39.24280265 30.98231943 41.7073538 30.71484375 44.171875 C30.59908493 45.31434944 30.59908493 45.31434944 30.48098755 46.47990417 C30.03849211 50.4677988 29.36137381 53.89708511 27.64453125 57.53515625 C25.00453125 57.53515625 22.36453125 57.53515625 19.64453125 57.53515625 C15.89498732 50.27540098 12.48062955 42.94405677 9.31591797 35.41162109 C7.61756984 31.42711279 5.7966209 27.50496258 3.953125 23.5859375 C3.63307495 22.90293579 3.3130249 22.21993408 2.98327637 21.51623535 C2.20480643 19.8553541 1.42482915 18.19517949 0.64453125 16.53515625 C0.92502319 18.13170044 0.92502319 18.13170044 1.21118164 19.76049805 C1.90421769 23.71923698 2.58534503 27.67994876 3.26293945 31.64135742 C3.55755683 33.35383105 3.85537763 35.06575682 4.15649414 36.77709961 C4.58938537 39.24064425 5.01062234 41.70594565 5.4296875 44.171875 C5.56609146 44.93352463 5.70249542 45.69517426 5.84303284 46.47990417 C6.50338144 50.43743135 6.77410159 53.65707647 5.64453125 57.53515625 C3.00453125 57.53515625 0.36453125 57.53515625 -2.35546875 57.53515625 C-4.01688718 52.11167541 -5.13059362 46.71741966 -6.08203125 41.12890625 C-6.23457367 40.24537476 -6.38711609 39.36184326 -6.54428101 38.45153809 C-6.86386154 36.59286935 -7.18142451 34.7338527 -7.49707031 32.87451172 C-7.97919018 30.04266626 -8.47165577 27.21274869 -8.96484375 24.3828125 C-9.27536971 22.56911819 -9.58528606 20.75531938 -9.89453125 18.94140625 C-10.0413736 18.10266968 -10.18821594 17.26393311 -10.33950806 16.39978027 C-11.11858569 11.75101966 -11.78922103 7.26009351 -11.35546875 2.53515625 C-7.43835992 -0.07624964 -4.63549017 -0.13973299 0 0 Z " fill="#04FFD0" transform="translate(258.35546875,203.46484375)"/>
<path d="M0 0 C7.73836775 3.01740671 12.81321317 9.52702695 16.375 16.8125 C18.07418997 25.47836886 17.6603735 33.48725567 12.7109375 40.94140625 C8.94666253 45.76249639 5.07586643 48.32322367 -1.09375 49.34765625 C-7.56009467 49.79164823 -12.74936659 47.69687454 -18 44 C-20.44249065 41.54724678 -22.24870357 38.97662595 -24 36 C-24.61875 34.989375 -25.2375 33.97875 -25.875 32.9375 C-28.32984381 26.51941437 -28.36743667 17.85102892 -26.0859375 11.42578125 C-19.91519336 0.97532747 -11.67915309 -1.29768368 0 0 Z " fill="#F8FCFB" transform="translate(171,282)"/>
<path d="M0 0 C5.82388413 3.32631199 11.1435736 8.74210536 13.734375 14.9375 C15.43786159 21.50352107 15.93976472 29.25433129 13.65625 35.72265625 C10.38289921 41.23788395 5.49609449 45.64551292 -0.43359375 48.14453125 C-6.24426714 48.99439164 -11.42395783 48.463145 -16.55078125 45.546875 C-22.51893474 41.10171503 -27.92096192 34.5251314 -29.43359375 27.14453125 C-30.2988163 18.71479154 -29.4593467 12.10896532 -24.43359375 5.14453125 C-18.30960173 -2.23377239 -8.83596505 -3.10606155 0 0 Z " fill="#F8FCFB" transform="translate(318.43359375,282.85546875)"/>
<path d="M0 0 C1.20849609 0.00644531 2.41699219 0.01289063 3.66210938 0.01953125 C5.55606445 0.04466797 5.55606445 0.04466797 7.48828125 0.0703125 C8.76251953 0.07933594 10.03675781 0.08835938 11.34960938 0.09765625 C14.50018752 0.12125609 17.65039108 0.15418056 20.80078125 0.1953125 C21.13843934 3.90326526 21.47013639 7.61172831 21.80078125 11.3203125 C21.89617187 12.36703125 21.9915625 13.41375 22.08984375 14.4921875 C22.18007812 15.51054687 22.2703125 16.52890625 22.36328125 17.578125 C22.44707031 18.51027832 22.53085938 19.44243164 22.6171875 20.40283203 C22.80950374 23.32798254 22.80078125 26.26384682 22.80078125 29.1953125 C5.31078125 29.1953125 -12.17921875 29.1953125 -30.19921875 29.1953125 C-25.70524977 22.45435902 -25.70524977 22.45435902 -23.61328125 20.046875 C-23.16017578 19.52005127 -22.70707031 18.99322754 -22.24023438 18.45043945 C-21.77294922 17.91249756 -21.30566406 17.37455566 -20.82421875 16.8203125 C-17.16387921 12.56389177 -13.64786418 8.28225584 -10.41796875 3.68359375 C-7.32183265 -0.09726476 -4.57378006 -0.04294629 0 0 Z " fill="#01FEBB" transform="translate(166.19921875,214.8046875)"/>
<path d="M0 0 C3.44227063 2.70987263 6.63952887 5.79543448 7.37109375 10.26953125 C7.48323986 14.56406771 7.56173692 18.00596838 4.9375 21.5625 C1.40508389 24.49365379 -0.42865831 25.08019898 -5 25 C-9.2848136 23.7397607 -11.26134555 22.06941068 -13.375 18.25 C-15.07378048 14.35279771 -15.63281515 11.27150223 -15 7 C-11.18608588 0.13495458 -7.62972861 -1.20122025 0 0 Z " fill="#05FDB7" transform="translate(315,294)"/>
<path d="M0 0 C4.4364496 1.05443785 6.9244863 3.7624387 9.59375 7.40234375 C10.91715498 11.90192067 10.62264533 15.50798887 8.90625 19.83984375 C7.21875 22.52734375 7.21875 22.52734375 4.21875 24.52734375 C-0.28407411 25.25251767 -3.77410654 25.12734411 -7.71875 22.77734375 C-11.69297116 18.44182976 -12.30203078 14.77999984 -12.1484375 9.01171875 C-11.13092725 2.12728773 -6.68841535 -0.45704172 0 0 Z " fill="#04FDB1" transform="translate(166.78125,293.47265625)"/>
<path d="M0 0 C1.79068573 2.6860286 2.66055791 4.6626589 3.625 7.6875 C3.88539063 8.49574219 4.14578125 9.30398437 4.4140625 10.13671875 C4.60742188 10.75160156 4.80078125 11.36648437 5 12 C4.34 12 3.68 12 3 12 C3 13.65 3 15.3 3 17 C2.67 17 2.34 17 2 17 C1.34 11.39 0.68 5.78 0 0 Z " fill="#D1FEFA" transform="translate(258,216)"/>
</svg>
